<mxfile host="app.diagrams.net" modified="2023-04-06T11:42:05.378Z" agent="Mozilla/5.0 (Windows NT 10.0; Win64; x64; rv:109.0) Gecko/20100101 Firefox/111.0" etag="FH5RJ09hi0DQ7RkIt25-" version="21.1.4" type="github">
  <diagram name="第 1 页" id="QdRId8iW14xugF0lzdwk">
    <mxGraphModel dx="819" dy="1629" grid="1" gridSize="10" guides="1" tooltips="1" connect="1" arrows="1" fold="1" page="1" pageScale="1" pageWidth="827" pageHeight="1169" math="0" shadow="0">
      <root>
        <mxCell id="0" />
        <mxCell id="1" parent="0" />
        <mxCell id="QmosnBfjX8igaR8JJhyt-29" value="&lt;div&gt;人声使用的五声音阶是如同爵士力度音阶一样,变换位置后相对固定的,用我的话来说就是同音名但不同音高&lt;/div&gt;&lt;div&gt;如&lt;span style=&quot;white-space: pre;&quot;&gt;	&lt;/span&gt;CDEGA,这是在一个八度内,但ACDEG这不在一个八度内的音,&lt;font color=&quot;#ff3333&quot;&gt;并且极频繁的使用这几个音&lt;/font&gt;其效果是与相同音名的效果不同的&lt;/div&gt;" style="text;html=1;strokeColor=none;fillColor=none;align=center;verticalAlign=middle;whiteSpace=wrap;rounded=0;" vertex="1" parent="1">
          <mxGeometry y="-10" width="300" height="30" as="geometry" />
        </mxCell>
        <mxCell id="QmosnBfjX8igaR8JJhyt-31" value="&lt;div style=&quot;font-size: 20px;&quot;&gt;&lt;font style=&quot;font-size: 20px;&quot;&gt;人声音阶 : A#C#D#FG#&lt;/font&gt;&lt;/div&gt;&lt;div style=&quot;font-size: 20px;&quot;&gt;&lt;font style=&quot;font-size: 20px;&quot;&gt;(五声音阶,八度音高按排列顺序从左往右)&lt;/font&gt;&lt;/div&gt;" style="text;html=1;align=left;verticalAlign=middle;resizable=0;points=[];autosize=1;strokeColor=none;fillColor=none;" vertex="1" parent="1">
          <mxGeometry y="50" width="380" height="60" as="geometry" />
        </mxCell>
      </root>
    </mxGraphModel>
  </diagram>
</mxfile>
